<svg width="460" height="108" viewBox="0 0 460 108" fill="none" xmlns="http://www.w3.org/2000/svg">
<path d="M200.045 23.4545H212.182L225 54.7273H225.545L238.364 23.4545H250.5V70H240.955V39.7045H240.568L228.523 69.7727H222.023L209.977 39.5909H209.591V70H200.045V23.4545ZM269.079 70.6818C265.549 70.6818 262.496 69.9318 259.92 68.4318C257.359 66.9167 255.382 64.8106 253.988 62.1136C252.594 59.4015 251.897 56.2576 251.897 52.6818C251.897 49.0758 252.594 45.9242 253.988 43.2273C255.382 40.5152 257.359 38.4091 259.92 36.9091C262.496 35.3939 265.549 34.6364 269.079 34.6364C272.609 34.6364 275.655 35.3939 278.215 36.9091C280.791 38.4091 282.776 40.5152 284.17 43.2273C285.564 45.9242 286.261 49.0758 286.261 52.6818C286.261 56.2576 285.564 59.4015 284.17 62.1136C282.776 64.8106 280.791 66.9167 278.215 68.4318C275.655 69.9318 272.609 70.6818 269.079 70.6818ZM269.124 63.1818C270.73 63.1818 272.071 62.7273 273.147 61.8182C274.223 60.8939 275.033 59.6364 275.579 58.0455C276.139 56.4545 276.42 54.6439 276.42 52.6136C276.42 50.5833 276.139 48.7727 275.579 47.1818C275.033 45.5909 274.223 44.3333 273.147 43.4091C272.071 42.4848 270.73 42.0227 269.124 42.0227C267.503 42.0227 266.139 42.4848 265.033 43.4091C263.943 44.3333 263.117 45.5909 262.556 47.1818C262.011 48.7727 261.738 50.5833 261.738 52.6136C261.738 54.6439 262.011 56.4545 262.556 58.0455C263.117 59.6364 263.943 60.8939 265.033 61.8182C266.139 62.7273 267.503 63.1818 269.124 63.1818ZM318.857 35.0909L306.652 70H295.743L283.538 35.0909H293.766L301.016 60.0682H301.379L308.607 35.0909H318.857ZM333.475 70.6818C329.884 70.6818 326.793 69.9545 324.202 68.5C321.627 67.0303 319.642 64.9545 318.248 62.2727C316.854 59.5758 316.157 56.3864 316.157 52.7045C316.157 49.1136 316.854 45.9621 318.248 43.25C319.642 40.5379 321.604 38.4242 324.134 36.9091C326.68 35.3939 329.665 34.6364 333.089 34.6364C335.392 34.6364 337.536 35.0076 339.521 35.75C341.521 36.4773 343.263 37.5758 344.748 39.0455C346.248 40.5152 347.415 42.3636 348.248 44.5909C349.081 46.803 349.498 49.3939 349.498 52.3636V55.0227H320.021V49.0227H340.384C340.384 47.6288 340.081 46.3939 339.475 45.3182C338.869 44.2424 338.028 43.4015 336.952 42.7955C335.892 42.1742 334.657 41.8636 333.248 41.8636C331.778 41.8636 330.475 42.2045 329.339 42.8864C328.218 43.553 327.339 44.4545 326.702 45.5909C326.066 46.7121 325.74 47.9621 325.725 49.3409V55.0455C325.725 56.7727 326.043 58.2652 326.68 59.5227C327.331 60.7803 328.248 61.75 329.43 62.4318C330.612 63.1136 332.013 63.4545 333.634 63.4545C334.71 63.4545 335.695 63.303 336.589 63C337.483 62.697 338.248 62.2424 338.884 61.6364C339.521 61.0303 340.006 60.2879 340.339 59.4091L349.293 60C348.839 62.1515 347.907 64.0303 346.498 65.6364C345.104 67.2273 343.301 68.4697 341.089 69.3636C338.892 70.2424 336.354 70.6818 333.475 70.6818ZM373.083 55.1364V35.0909H382.764V70H373.469V63.6591H373.105C372.317 65.7045 371.007 67.3485 369.173 68.5909C367.355 69.8333 365.136 70.4545 362.514 70.4545C360.181 70.4545 358.128 69.9242 356.355 68.8636C354.583 67.803 353.196 66.2955 352.196 64.3409C351.211 62.3864 350.711 60.0455 350.696 57.3182V35.0909H360.378V55.5909C360.393 57.6515 360.946 59.2803 362.037 60.4773C363.128 61.6742 364.59 62.2727 366.423 62.2727C367.59 62.2727 368.681 62.0076 369.696 61.4773C370.711 60.9318 371.529 60.1288 372.151 59.0682C372.787 58.0076 373.098 56.697 373.083 55.1364ZM385.389 83.0909V35.0909H394.934V40.9545H395.366C395.79 40.0152 396.404 39.0606 397.207 38.0909C398.025 37.1061 399.086 36.2879 400.389 35.6364C401.707 34.9697 403.343 34.6364 405.298 34.6364C407.843 34.6364 410.192 35.303 412.343 36.6364C414.495 37.9545 416.214 39.947 417.502 42.6136C418.79 45.2652 419.434 48.5909 419.434 52.5909C419.434 56.4848 418.805 59.7727 417.548 62.4545C416.305 65.1212 414.608 67.1439 412.457 68.5227C410.32 69.8864 407.927 70.5682 405.275 70.5682C403.396 70.5682 401.798 70.2576 400.48 69.6364C399.177 69.0152 398.108 68.2348 397.275 67.2955C396.442 66.3409 395.805 65.3788 395.366 64.4091H395.07V83.0909H385.389ZM394.866 52.5455C394.866 54.6212 395.154 56.4318 395.73 57.9773C396.305 59.5227 397.139 60.7273 398.23 61.5909C399.32 62.4394 400.646 62.8636 402.207 62.8636C403.783 62.8636 405.116 62.4318 406.207 61.5682C407.298 60.6894 408.123 59.4773 408.684 57.9318C409.26 56.3712 409.548 54.5758 409.548 52.5455C409.548 50.5303 409.267 48.7576 408.707 47.2273C408.146 45.697 407.32 44.5 406.23 43.6364C405.139 42.7727 403.798 42.3409 402.207 42.3409C400.631 42.3409 399.298 42.7576 398.207 43.5909C397.131 44.4242 396.305 45.6061 395.73 47.1364C395.154 48.6667 394.866 50.4697 394.866 52.5455Z" fill="white"/>
<path d="M0.840909 93.3182V92.3636H9.27841V93.3182H5.59091V104H4.52841V93.3182H0.840909ZM17.083 104.182C16.2686 104.182 15.5641 103.992 14.9694 103.614C14.3747 103.231 13.9145 102.703 13.5887 102.028C13.2667 101.35 13.1057 100.57 13.1057 99.6875C13.1057 98.8087 13.2667 98.0284 13.5887 97.3466C13.9145 96.661 14.3633 96.125 14.9353 95.7386C15.511 95.3485 16.1758 95.1534 16.9296 95.1534C17.4031 95.1534 17.8595 95.2405 18.2989 95.4148C18.7383 95.5852 19.1323 95.8485 19.4807 96.2045C19.833 96.5568 20.1114 97.0019 20.316 97.5398C20.5205 98.0739 20.6228 98.7064 20.6228 99.4375V99.9375H13.8046V99.0455H19.5887C19.5887 98.4848 19.4751 97.9811 19.2478 97.5341C19.0243 97.0833 18.7118 96.7273 18.3103 96.4659C17.9126 96.2045 17.4523 96.0739 16.9296 96.0739C16.3766 96.0739 15.8898 96.2216 15.4694 96.517C15.0489 96.8125 14.7194 97.2027 14.4807 97.6875C14.2459 98.1723 14.1266 98.7027 14.1228 99.2784V99.8125C14.1228 100.506 14.2421 101.112 14.4807 101.631C14.7232 102.146 15.066 102.545 15.5091 102.83C15.9523 103.114 16.477 103.256 17.083 103.256C17.4959 103.256 17.8576 103.191 18.1682 103.062C18.4826 102.934 18.7459 102.761 18.958 102.545C19.1739 102.326 19.3368 102.085 19.4466 101.824L20.4069 102.136C20.2743 102.504 20.0565 102.843 19.7535 103.153C19.4542 103.464 19.0792 103.714 18.6285 103.903C18.1815 104.089 17.6663 104.182 17.083 104.182ZM29.6206 104.182C28.8403 104.182 28.1603 103.987 27.5808 103.597C27.005 103.206 26.5581 102.672 26.2399 101.994C25.9217 101.316 25.7626 100.544 25.7626 99.6761C25.7626 98.8011 25.9236 98.0227 26.2456 97.3409C26.5713 96.6591 27.0221 96.125 27.5978 95.7386C28.1736 95.3485 28.8422 95.1534 29.6035 95.1534C30.1869 95.1534 30.7153 95.267 31.1887 95.4943C31.6622 95.7178 32.0524 96.0341 32.3592 96.4432C32.6698 96.8485 32.8649 97.322 32.9444 97.8636H31.9217C31.8156 97.3712 31.56 96.9508 31.1547 96.6023C30.7531 96.25 30.2418 96.0739 29.6206 96.0739C29.0637 96.0739 28.5713 96.2254 28.1433 96.5284C27.7153 96.8277 27.38 97.2462 27.1376 97.7841C26.899 98.3182 26.7797 98.9375 26.7797 99.642C26.7797 100.35 26.8971 100.977 27.1319 101.523C27.3668 102.064 27.6963 102.489 28.1206 102.795C28.5486 103.102 29.0486 103.256 29.6206 103.256C30.0069 103.256 30.3592 103.184 30.6774 103.04C30.9994 102.892 31.2683 102.684 31.4842 102.415C31.7039 102.146 31.8516 101.826 31.9274 101.455H32.9501C32.8744 101.981 32.6869 102.451 32.3876 102.864C32.0922 103.273 31.7077 103.595 31.2342 103.83C30.7645 104.064 30.2266 104.182 29.6206 104.182ZM39.4891 98.5455V104H38.4777V95.2727H39.4607V96.642H39.5516C39.7561 96.1951 40.0743 95.8371 40.5061 95.5682C40.9417 95.2955 41.4796 95.1591 42.1198 95.1591C42.7069 95.1591 43.222 95.2822 43.6652 95.5284C44.1122 95.7708 44.4588 96.1288 44.705 96.6023C44.955 97.0758 45.08 97.6572 45.08 98.3466V104H44.0686V98.4091C44.0686 97.6932 43.8679 97.1269 43.4664 96.7102C43.0686 96.2936 42.5345 96.0852 41.8641 96.0852C41.4058 96.0852 40.9986 96.1837 40.6425 96.3807C40.2864 96.5777 40.0042 96.8617 39.7959 97.233C39.5914 97.6004 39.4891 98.0379 39.4891 98.5455ZM54.4954 104.182C53.7416 104.182 53.0749 103.991 52.4954 103.608C51.9196 103.225 51.4689 102.697 51.1431 102.023C50.8174 101.345 50.6545 100.562 50.6545 99.6761C50.6545 98.7822 50.8174 97.9962 51.1431 97.3182C51.4689 96.6364 51.9196 96.1061 52.4954 95.7273C53.0749 95.3447 53.7416 95.1534 54.4954 95.1534C55.2492 95.1534 55.914 95.3447 56.4897 95.7273C57.0655 96.1098 57.5162 96.6402 57.842 97.3182C58.1715 97.9962 58.3363 98.7822 58.3363 99.6761C58.3363 100.562 58.1734 101.345 57.8477 102.023C57.5219 102.697 57.0693 103.225 56.4897 103.608C55.914 103.991 55.2492 104.182 54.4954 104.182ZM54.4954 103.256C55.1015 103.256 55.6147 103.093 56.0352 102.767C56.4556 102.441 56.7738 102.008 56.9897 101.466C57.2094 100.924 57.3193 100.328 57.3193 99.6761C57.3193 99.0246 57.2094 98.4261 56.9897 97.8807C56.7738 97.3352 56.4556 96.8977 56.0352 96.5682C55.6147 96.2386 55.1015 96.0739 54.4954 96.0739C53.8931 96.0739 53.3799 96.2386 52.9556 96.5682C52.5352 96.8977 52.2151 97.3352 51.9954 97.8807C51.7795 98.4261 51.6715 99.0246 51.6715 99.6761C51.6715 100.328 51.7795 100.924 51.9954 101.466C52.2151 102.008 52.5352 102.441 52.9556 102.767C53.3761 103.093 53.8893 103.256 54.4954 103.256ZM64.9278 92.3636V104H63.9165V92.3636H64.9278ZM74.356 104.182C73.6022 104.182 72.9356 103.991 72.356 103.608C71.7803 103.225 71.3295 102.697 71.0037 102.023C70.678 101.345 70.5151 100.562 70.5151 99.6761C70.5151 98.7822 70.678 97.9962 71.0037 97.3182C71.3295 96.6364 71.7803 96.1061 72.356 95.7273C72.9356 95.3447 73.6022 95.1534 74.356 95.1534C75.1098 95.1534 75.7746 95.3447 76.3503 95.7273C76.9261 96.1098 77.3769 96.6402 77.7026 97.3182C78.0322 97.9962 78.1969 98.7822 78.1969 99.6761C78.1969 100.562 78.034 101.345 77.7083 102.023C77.3825 102.697 76.9299 103.225 76.3503 103.608C75.7746 103.991 75.1098 104.182 74.356 104.182ZM74.356 103.256C74.9621 103.256 75.4753 103.093 75.8958 102.767C76.3162 102.441 76.6344 102.008 76.8503 101.466C77.07 100.924 77.1799 100.328 77.1799 99.6761C77.1799 99.0246 77.07 98.4261 76.8503 97.8807C76.6344 97.3352 76.3162 96.8977 75.8958 96.5682C75.4753 96.2386 74.9621 96.0739 74.356 96.0739C73.7537 96.0739 73.2405 96.2386 72.8162 96.5682C72.3958 96.8977 72.0757 97.3352 71.856 97.8807C71.6401 98.4261 71.5322 99.0246 71.5322 99.6761C71.5322 100.328 71.6401 100.924 71.856 101.466C72.0757 102.008 72.3958 102.441 72.8162 102.767C73.2367 103.093 73.75 103.256 74.356 103.256ZM87.1066 107.455C86.5119 107.455 85.9911 107.377 85.5441 107.222C85.0972 107.07 84.7203 106.862 84.4135 106.597C84.1066 106.331 83.868 106.034 83.6976 105.705L84.5271 105.159C84.6521 105.379 84.8188 105.595 85.0271 105.807C85.2392 106.019 85.5138 106.195 85.851 106.335C86.1919 106.475 86.6104 106.545 87.1066 106.545C87.8794 106.545 88.5025 106.352 88.976 105.966C89.4532 105.58 89.6919 104.979 89.6919 104.165V102.199H89.601C89.4835 102.464 89.315 102.729 89.0953 102.994C88.8756 103.256 88.5877 103.473 88.2316 103.648C87.8794 103.822 87.4419 103.909 86.9191 103.909C86.2222 103.909 85.6029 103.737 85.0612 103.392C84.5233 103.047 84.0991 102.555 83.7885 101.915C83.4816 101.271 83.3282 100.504 83.3282 99.6136C83.3282 98.7311 83.4779 97.9545 83.7771 97.2841C84.0801 96.6136 84.5025 96.0909 85.0441 95.7159C85.5858 95.3409 86.2165 95.1534 86.9362 95.1534C87.4703 95.1534 87.9135 95.2481 88.2657 95.4375C88.618 95.6231 88.9002 95.8542 89.1123 96.1307C89.3282 96.4072 89.4968 96.6761 89.618 96.9375H89.7203V95.2727H90.7089V104.227C90.7089 104.966 90.5517 105.574 90.2373 106.051C89.9229 106.528 89.4949 106.881 88.9532 107.108C88.4116 107.339 87.796 107.455 87.1066 107.455ZM87.0385 102.983C87.5991 102.983 88.0782 102.848 88.476 102.58C88.8737 102.307 89.1786 101.917 89.3907 101.409C89.6029 100.902 89.7089 100.297 89.7089 99.5966C89.7089 98.9148 89.6048 98.3106 89.3964 97.7841C89.1881 97.2538 88.8851 96.8371 88.4873 96.5341C88.0934 96.2273 87.6104 96.0739 87.0385 96.0739C86.4551 96.0739 85.9627 96.2311 85.5612 96.5455C85.1597 96.8598 84.8566 97.2841 84.6521 97.8182C84.4476 98.3485 84.3453 98.9413 84.3453 99.5966C84.3453 100.263 84.4494 100.852 84.6578 101.364C84.8661 101.871 85.171 102.269 85.5726 102.557C85.9741 102.841 86.4627 102.983 87.0385 102.983ZM96.7578 104V95.2727H97.7749V104H96.7578ZM97.2749 93.7727C97.0666 93.7727 96.8885 93.7027 96.7408 93.5625C96.5931 93.4186 96.5192 93.2462 96.5192 93.0455C96.5192 92.8447 96.5931 92.6742 96.7408 92.5341C96.8885 92.3902 97.0666 92.3182 97.2749 92.3182C97.4832 92.3182 97.6612 92.3902 97.809 92.5341C97.9567 92.6742 98.0306 92.8447 98.0306 93.0455C98.0306 93.2462 97.9567 93.4186 97.809 93.5625C97.6612 93.7027 97.4832 93.7727 97.2749 93.7727ZM106.247 104.199C105.721 104.199 105.24 104.097 104.804 103.892C104.368 103.684 104.022 103.384 103.764 102.994C103.507 102.6 103.378 102.123 103.378 101.562C103.378 101.131 103.459 100.767 103.622 100.472C103.785 100.176 104.016 99.9337 104.315 99.7443C104.615 99.5549 104.969 99.4053 105.378 99.2955C105.787 99.1856 106.238 99.1004 106.73 99.0398C107.219 98.9792 107.632 98.9261 107.969 98.8807C108.31 98.8352 108.569 98.7633 108.747 98.6648C108.925 98.5663 109.014 98.4072 109.014 98.1875V97.983C109.014 97.3883 108.836 96.9205 108.48 96.5795C108.128 96.2348 107.62 96.0625 106.957 96.0625C106.329 96.0625 105.815 96.2008 105.418 96.4773C105.024 96.7538 104.747 97.0795 104.588 97.4545L103.628 97.108C103.825 96.6307 104.097 96.25 104.446 95.9659C104.794 95.678 105.185 95.4716 105.616 95.3466C106.048 95.2178 106.486 95.1534 106.929 95.1534C107.262 95.1534 107.609 95.197 107.969 95.2841C108.332 95.3712 108.669 95.5227 108.98 95.7386C109.291 95.9508 109.543 96.2481 109.736 96.6307C109.929 97.0095 110.026 97.4905 110.026 98.0739V104H109.014V102.619H108.952C108.83 102.877 108.651 103.127 108.412 103.369C108.173 103.612 107.874 103.811 107.514 103.966C107.154 104.121 106.732 104.199 106.247 104.199ZM106.383 103.273C106.921 103.273 107.387 103.153 107.781 102.915C108.175 102.676 108.478 102.36 108.69 101.966C108.906 101.568 109.014 101.131 109.014 100.653V99.392C108.938 99.464 108.811 99.5284 108.633 99.5852C108.459 99.642 108.257 99.6932 108.026 99.7386C107.798 99.7803 107.571 99.8163 107.344 99.8466C107.116 99.8769 106.912 99.9034 106.73 99.9261C106.238 99.9867 105.817 100.081 105.469 100.21C105.12 100.339 104.853 100.517 104.668 100.744C104.482 100.968 104.389 101.256 104.389 101.608C104.389 102.138 104.579 102.549 104.957 102.841C105.336 103.129 105.811 103.273 106.383 103.273ZM123.936 107.273V95.2727H124.919V96.9375H125.038C125.159 96.6761 125.326 96.4091 125.538 96.1364C125.75 95.8598 126.031 95.6269 126.379 95.4375C126.731 95.2481 127.174 95.1534 127.709 95.1534C128.428 95.1534 129.057 95.3428 129.595 95.7216C130.137 96.0966 130.557 96.6231 130.856 97.3011C131.159 97.9754 131.311 98.7614 131.311 99.6591C131.311 100.561 131.159 101.35 130.856 102.028C130.557 102.706 130.137 103.235 129.595 103.614C129.057 103.992 128.432 104.182 127.72 104.182C127.193 104.182 126.752 104.087 126.396 103.898C126.044 103.708 125.758 103.475 125.538 103.199C125.322 102.919 125.156 102.646 125.038 102.381H124.947V107.273H123.936ZM124.936 99.642C124.936 100.347 125.04 100.972 125.248 101.517C125.46 102.059 125.764 102.485 126.157 102.795C126.555 103.102 127.036 103.256 127.601 103.256C128.18 103.256 128.669 103.097 129.067 102.778C129.468 102.456 129.773 102.023 129.981 101.477C130.193 100.932 130.299 100.32 130.299 99.642C130.299 98.9716 130.195 98.3674 129.987 97.8295C129.782 97.2917 129.479 96.8655 129.078 96.5511C128.676 96.233 128.184 96.0739 127.601 96.0739C127.032 96.0739 126.549 96.2273 126.152 96.5341C125.754 96.8371 125.451 97.2576 125.243 97.7955C125.038 98.3295 124.936 98.9451 124.936 99.642ZM139.327 104.199C138.801 104.199 138.32 104.097 137.884 103.892C137.448 103.684 137.102 103.384 136.844 102.994C136.587 102.6 136.458 102.123 136.458 101.562C136.458 101.131 136.539 100.767 136.702 100.472C136.865 100.176 137.096 99.9337 137.395 99.7443C137.695 99.5549 138.049 99.4053 138.458 99.2955C138.867 99.1856 139.318 99.1004 139.81 99.0398C140.299 98.9792 140.712 98.9261 141.049 98.8807C141.39 98.8352 141.649 98.7633 141.827 98.6648C142.005 98.5663 142.094 98.4072 142.094 98.1875V97.983C142.094 97.3883 141.916 96.9205 141.56 96.5795C141.208 96.2348 140.7 96.0625 140.037 96.0625C139.409 96.0625 138.895 96.2008 138.498 96.4773C138.104 96.7538 137.827 97.0795 137.668 97.4545L136.708 97.108C136.905 96.6307 137.177 96.25 137.526 95.9659C137.874 95.678 138.265 95.4716 138.696 95.3466C139.128 95.2178 139.566 95.1534 140.009 95.1534C140.342 95.1534 140.689 95.197 141.049 95.2841C141.412 95.3712 141.749 95.5227 142.06 95.7386C142.371 95.9508 142.623 96.2481 142.816 96.6307C143.009 97.0095 143.106 97.4905 143.106 98.0739V104H142.094V102.619H142.032C141.91 102.877 141.731 103.127 141.492 103.369C141.253 103.612 140.954 103.811 140.594 103.966C140.234 104.121 139.812 104.199 139.327 104.199ZM139.463 103.273C140.001 103.273 140.467 103.153 140.861 102.915C141.255 102.676 141.558 102.36 141.77 101.966C141.986 101.568 142.094 101.131 142.094 100.653V99.392C142.018 99.464 141.891 99.5284 141.713 99.5852C141.539 99.642 141.337 99.6932 141.106 99.7386C140.878 99.7803 140.651 99.8163 140.424 99.8466C140.196 99.8769 139.992 99.9034 139.81 99.9261C139.318 99.9867 138.897 100.081 138.549 100.21C138.2 100.339 137.933 100.517 137.748 100.744C137.562 100.968 137.469 101.256 137.469 101.608C137.469 102.138 137.659 102.549 138.037 102.841C138.416 103.129 138.891 103.273 139.463 103.273ZM149.156 104V95.2727H150.139V96.6136H150.213C150.387 96.1742 150.69 95.8201 151.122 95.5511C151.557 95.2784 152.05 95.142 152.599 95.142C152.682 95.142 152.775 95.1439 152.877 95.1477C152.98 95.1515 153.065 95.1553 153.133 95.1591V96.1875C153.088 96.1799 153.008 96.1686 152.894 96.1534C152.781 96.1383 152.658 96.1307 152.525 96.1307C152.071 96.1307 151.665 96.2273 151.309 96.4205C150.957 96.6098 150.679 96.8731 150.474 97.2102C150.269 97.5473 150.167 97.9318 150.167 98.3636V104H149.156ZM160.656 104.199C160.13 104.199 159.649 104.097 159.213 103.892C158.778 103.684 158.431 103.384 158.174 102.994C157.916 102.6 157.787 102.123 157.787 101.562C157.787 101.131 157.869 100.767 158.031 100.472C158.194 100.176 158.425 99.9337 158.725 99.7443C159.024 99.5549 159.378 99.4053 159.787 99.2955C160.196 99.1856 160.647 99.1004 161.139 99.0398C161.628 98.9792 162.041 98.9261 162.378 98.8807C162.719 98.8352 162.978 98.7633 163.156 98.6648C163.335 98.5663 163.424 98.4072 163.424 98.1875V97.983C163.424 97.3883 163.245 96.9205 162.889 96.5795C162.537 96.2348 162.03 96.0625 161.367 96.0625C160.738 96.0625 160.225 96.2008 159.827 96.4773C159.433 96.7538 159.156 97.0795 158.997 97.4545L158.037 97.108C158.234 96.6307 158.507 96.25 158.855 95.9659C159.204 95.678 159.594 95.4716 160.026 95.3466C160.458 95.2178 160.895 95.1534 161.338 95.1534C161.672 95.1534 162.018 95.197 162.378 95.2841C162.742 95.3712 163.079 95.5227 163.389 95.7386C163.7 95.9508 163.952 96.2481 164.145 96.6307C164.338 97.0095 164.435 97.4905 164.435 98.0739V104H163.424V102.619H163.361C163.24 102.877 163.06 103.127 162.821 103.369C162.583 103.612 162.283 103.811 161.924 103.966C161.564 104.121 161.141 104.199 160.656 104.199ZM160.793 103.273C161.331 103.273 161.797 103.153 162.191 102.915C162.585 102.676 162.888 102.36 163.1 101.966C163.316 101.568 163.424 101.131 163.424 100.653V99.392C163.348 99.464 163.221 99.5284 163.043 99.5852C162.869 99.642 162.666 99.6932 162.435 99.7386C162.208 99.7803 161.98 99.8163 161.753 99.8466C161.526 99.8769 161.321 99.9034 161.139 99.9261C160.647 99.9867 160.227 100.081 159.878 100.21C159.53 100.339 159.263 100.517 159.077 100.744C158.891 100.968 158.799 101.256 158.799 101.608C158.799 102.138 158.988 102.549 159.367 102.841C159.745 103.129 160.221 103.273 160.793 103.273ZM178.357 104V95.2727H179.374V104H178.357ZM178.874 93.7727C178.665 93.7727 178.487 93.7027 178.34 93.5625C178.192 93.4186 178.118 93.2462 178.118 93.0455C178.118 92.8447 178.192 92.6742 178.34 92.5341C178.487 92.3902 178.665 92.3182 178.874 92.3182C179.082 92.3182 179.26 92.3902 179.408 92.5341C179.555 92.6742 179.629 92.8447 179.629 93.0455C179.629 93.2462 179.555 93.4186 179.408 93.5625C179.26 93.7027 179.082 93.7727 178.874 93.7727ZM185.408 104V95.2727H186.391V96.6136H186.482C186.656 96.1629 186.946 95.8087 187.352 95.5511C187.761 95.2898 188.251 95.1591 188.823 95.1591C189.425 95.1591 189.92 95.3011 190.306 95.5852C190.696 95.8655 190.988 96.2519 191.181 96.7443H191.255C191.452 96.2595 191.772 95.875 192.215 95.5909C192.662 95.303 193.204 95.1591 193.84 95.1591C194.651 95.1591 195.291 95.4148 195.761 95.9261C196.23 96.4337 196.465 97.1761 196.465 98.1534V104H195.454V98.1534C195.454 97.464 195.278 96.947 194.925 96.6023C194.573 96.2576 194.109 96.0852 193.533 96.0852C192.867 96.0852 192.353 96.2898 191.994 96.6989C191.634 97.108 191.454 97.6269 191.454 98.2557V104H190.42V98.0625C190.42 97.4716 190.255 96.9943 189.925 96.6307C189.596 96.267 189.132 96.0852 188.533 96.0852C188.132 96.0852 187.77 96.1837 187.448 96.3807C187.13 96.5777 186.878 96.8523 186.692 97.2045C186.511 97.553 186.42 97.9545 186.42 98.4091V104H185.408ZM202.503 107.273V95.2727H203.486V96.9375H203.605C203.726 96.6761 203.893 96.4091 204.105 96.1364C204.317 95.8598 204.597 95.6269 204.946 95.4375C205.298 95.2481 205.741 95.1534 206.275 95.1534C206.995 95.1534 207.624 95.3428 208.162 95.7216C208.703 96.0966 209.124 96.6231 209.423 97.3011C209.726 97.9754 209.878 98.7614 209.878 99.6591C209.878 100.561 209.726 101.35 209.423 102.028C209.124 102.706 208.703 103.235 208.162 103.614C207.624 103.992 206.999 104.182 206.287 104.182C205.76 104.182 205.319 104.087 204.963 103.898C204.611 103.708 204.325 103.475 204.105 103.199C203.889 102.919 203.722 102.646 203.605 102.381H203.514V107.273H202.503ZM203.503 99.642C203.503 100.347 203.607 100.972 203.815 101.517C204.027 102.059 204.33 102.485 204.724 102.795C205.122 103.102 205.603 103.256 206.167 103.256C206.747 103.256 207.236 103.097 207.633 102.778C208.035 102.456 208.34 102.023 208.548 101.477C208.76 100.932 208.866 100.32 208.866 99.642C208.866 98.9716 208.762 98.3674 208.554 97.8295C208.349 97.2917 208.046 96.8655 207.645 96.5511C207.243 96.233 206.751 96.0739 206.167 96.0739C205.599 96.0739 205.116 96.2273 204.719 96.5341C204.321 96.8371 204.018 97.2576 203.81 97.7955C203.605 98.3295 203.503 98.9451 203.503 99.642ZM221.002 100.665V95.2727H222.013V104H221.002V102.551H220.922C220.718 102.998 220.394 103.371 219.951 103.67C219.508 103.966 218.966 104.114 218.326 104.114C217.769 104.114 217.275 103.992 216.843 103.75C216.411 103.504 216.072 103.144 215.826 102.67C215.58 102.197 215.456 101.616 215.456 100.926V95.2727H216.468V100.864C216.468 101.545 216.669 102.095 217.07 102.511C217.472 102.924 217.987 103.131 218.616 103.131C219.01 103.131 219.388 103.036 219.752 102.847C220.116 102.657 220.415 102.381 220.65 102.017C220.885 101.65 221.002 101.199 221.002 100.665ZM229.062 92.3636V104H228.051V92.3636H229.062ZM240.962 97.1875L240.036 97.4489C239.945 97.1875 239.816 96.9508 239.649 96.7386C239.483 96.5265 239.265 96.358 238.996 96.233C238.731 96.108 238.401 96.0455 238.007 96.0455C237.417 96.0455 236.932 96.1856 236.553 96.4659C236.174 96.7462 235.985 97.108 235.985 97.5511C235.985 97.9261 236.114 98.2311 236.371 98.4659C236.632 98.697 237.034 98.8807 237.576 99.017L238.894 99.3409C239.625 99.5189 240.172 99.8011 240.536 100.188C240.903 100.574 241.087 101.059 241.087 101.642C241.087 102.134 240.951 102.572 240.678 102.955C240.405 103.337 240.024 103.638 239.536 103.858C239.051 104.074 238.489 104.182 237.848 104.182C236.996 104.182 236.293 103.991 235.74 103.608C235.187 103.222 234.833 102.665 234.678 101.938L235.649 101.699C235.774 102.218 236.019 102.61 236.382 102.875C236.75 103.14 237.233 103.273 237.831 103.273C238.502 103.273 239.038 103.123 239.439 102.824C239.841 102.521 240.042 102.142 240.042 101.688C240.042 101.335 239.924 101.04 239.689 100.801C239.454 100.559 239.098 100.381 238.621 100.267L237.195 99.9261C236.437 99.7443 235.877 99.4564 235.513 99.0625C235.149 98.6686 234.968 98.1799 234.968 97.5966C234.968 97.1155 235.098 96.6932 235.36 96.3295C235.621 95.9621 235.981 95.6742 236.439 95.4659C236.898 95.2576 237.42 95.1534 238.007 95.1534C238.807 95.1534 239.445 95.3352 239.922 95.6989C240.403 96.0587 240.75 96.5549 240.962 97.1875ZM246.673 104V95.2727H247.69V104H246.673ZM247.19 93.7727C246.982 93.7727 246.804 93.7027 246.656 93.5625C246.508 93.4186 246.434 93.2462 246.434 93.0455C246.434 92.8447 246.508 92.6742 246.656 92.5341C246.804 92.3902 246.982 92.3182 247.19 92.3182C247.398 92.3182 247.576 92.3902 247.724 92.5341C247.872 92.6742 247.946 92.8447 247.946 93.0455C247.946 93.2462 247.872 93.4186 247.724 93.5625C247.576 93.7027 247.398 93.7727 247.19 93.7727ZM257.117 104.182C256.363 104.182 255.696 103.991 255.117 103.608C254.541 103.225 254.09 102.697 253.764 102.023C253.439 101.345 253.276 100.562 253.276 99.6761C253.276 98.7822 253.439 97.9962 253.764 97.3182C254.09 96.6364 254.541 96.1061 255.117 95.7273C255.696 95.3447 256.363 95.1534 257.117 95.1534C257.87 95.1534 258.535 95.3447 259.111 95.7273C259.687 96.1098 260.137 96.6402 260.463 97.3182C260.793 97.9962 260.958 98.7822 260.958 99.6761C260.958 100.562 260.795 101.345 260.469 102.023C260.143 102.697 259.691 103.225 259.111 103.608C258.535 103.991 257.87 104.182 257.117 104.182ZM257.117 103.256C257.723 103.256 258.236 103.093 258.656 102.767C259.077 102.441 259.395 102.008 259.611 101.466C259.831 100.924 259.941 100.328 259.941 99.6761C259.941 99.0246 259.831 98.4261 259.611 97.8807C259.395 97.3352 259.077 96.8977 258.656 96.5682C258.236 96.2386 257.723 96.0739 257.117 96.0739C256.514 96.0739 256.001 96.2386 255.577 96.5682C255.156 96.8977 254.836 97.3352 254.617 97.8807C254.401 98.4261 254.293 99.0246 254.293 99.6761C254.293 100.328 254.401 100.924 254.617 101.466C254.836 102.008 255.156 102.441 255.577 102.767C255.997 103.093 256.511 103.256 257.117 103.256ZM267.549 98.5455V104H266.538V95.2727H267.521V96.642H267.612C267.816 96.1951 268.134 95.8371 268.566 95.5682C269.002 95.2955 269.54 95.1591 270.18 95.1591C270.767 95.1591 271.282 95.2822 271.725 95.5284C272.172 95.7708 272.519 96.1288 272.765 96.6023C273.015 97.0758 273.14 97.6572 273.14 98.3466V104H272.129V98.4091C272.129 97.6932 271.928 97.1269 271.526 96.7102C271.129 96.2936 270.595 96.0852 269.924 96.0852C269.466 96.0852 269.059 96.1837 268.702 96.3807C268.346 96.5777 268.064 96.8617 267.856 97.233C267.651 97.6004 267.549 98.0379 267.549 98.5455ZM281.601 104.199C281.074 104.199 280.593 104.097 280.158 103.892C279.722 103.684 279.375 103.384 279.118 102.994C278.86 102.6 278.732 102.123 278.732 101.562C278.732 101.131 278.813 100.767 278.976 100.472C279.139 100.176 279.37 99.9337 279.669 99.7443C279.968 99.5549 280.322 99.4053 280.732 99.2955C281.141 99.1856 281.591 99.1004 282.084 99.0398C282.572 98.9792 282.985 98.9261 283.322 98.8807C283.663 98.8352 283.923 98.7633 284.101 98.6648C284.279 98.5663 284.368 98.4072 284.368 98.1875V97.983C284.368 97.3883 284.19 96.9205 283.834 96.5795C283.482 96.2348 282.974 96.0625 282.311 96.0625C281.682 96.0625 281.169 96.2008 280.771 96.4773C280.377 96.7538 280.101 97.0795 279.942 97.4545L278.982 97.108C279.179 96.6307 279.451 96.25 279.8 95.9659C280.148 95.678 280.538 95.4716 280.97 95.3466C281.402 95.2178 281.839 95.1534 282.283 95.1534C282.616 95.1534 282.963 95.197 283.322 95.2841C283.686 95.3712 284.023 95.5227 284.334 95.7386C284.644 95.9508 284.896 96.2481 285.089 96.6307C285.283 97.0095 285.379 97.4905 285.379 98.0739V104H284.368V102.619H284.305C284.184 102.877 284.004 103.127 283.766 103.369C283.527 103.612 283.228 103.811 282.868 103.966C282.508 104.121 282.086 104.199 281.601 104.199ZM281.737 103.273C282.275 103.273 282.741 103.153 283.135 102.915C283.529 102.676 283.832 102.36 284.044 101.966C284.26 101.568 284.368 101.131 284.368 100.653V99.392C284.292 99.464 284.165 99.5284 283.987 99.5852C283.813 99.642 283.61 99.6932 283.379 99.7386C283.152 99.7803 282.925 99.8163 282.697 99.8466C282.47 99.8769 282.266 99.9034 282.084 99.9261C281.591 99.9867 281.171 100.081 280.822 100.21C280.474 100.339 280.207 100.517 280.021 100.744C279.836 100.968 279.743 101.256 279.743 101.608C279.743 102.138 279.932 102.549 280.311 102.841C280.69 103.129 281.165 103.273 281.737 103.273ZM291.43 104V95.2727H292.413V96.6136H292.486C292.661 96.1742 292.964 95.8201 293.395 95.5511C293.831 95.2784 294.324 95.142 294.873 95.142C294.956 95.142 295.049 95.1439 295.151 95.1477C295.253 95.1515 295.339 95.1553 295.407 95.1591V96.1875C295.361 96.1799 295.282 96.1686 295.168 96.1534C295.055 96.1383 294.931 96.1307 294.799 96.1307C294.344 96.1307 293.939 96.2273 293.583 96.4205C293.231 96.6098 292.952 96.8731 292.748 97.2102C292.543 97.5473 292.441 97.9318 292.441 98.3636V104H291.43ZM311.745 104.182C310.991 104.182 310.324 103.991 309.745 103.608C309.169 103.225 308.718 102.697 308.392 102.023C308.067 101.345 307.904 100.562 307.904 99.6761C307.904 98.7822 308.067 97.9962 308.392 97.3182C308.718 96.6364 309.169 96.1061 309.745 95.7273C310.324 95.3447 310.991 95.1534 311.745 95.1534C312.499 95.1534 313.163 95.3447 313.739 95.7273C314.315 96.1098 314.766 96.6402 315.091 97.3182C315.421 97.9962 315.586 98.7822 315.586 99.6761C315.586 100.562 315.423 101.345 315.097 102.023C314.771 102.697 314.319 103.225 313.739 103.608C313.163 103.991 312.499 104.182 311.745 104.182ZM311.745 103.256C312.351 103.256 312.864 103.093 313.285 102.767C313.705 102.441 314.023 102.008 314.239 101.466C314.459 100.924 314.569 100.328 314.569 99.6761C314.569 99.0246 314.459 98.4261 314.239 97.8807C314.023 97.3352 313.705 96.8977 313.285 96.5682C312.864 96.2386 312.351 96.0739 311.745 96.0739C311.142 96.0739 310.629 96.2386 310.205 96.5682C309.785 96.8977 309.464 97.3352 309.245 97.8807C309.029 98.4261 308.921 99.0246 308.921 99.6761C308.921 100.328 309.029 100.924 309.245 101.466C309.464 102.008 309.785 102.441 310.205 102.767C310.625 103.093 311.139 103.256 311.745 103.256ZM334.889 97.1875L333.963 97.4489C333.872 97.1875 333.744 96.9508 333.577 96.7386C333.41 96.5265 333.193 96.358 332.924 96.233C332.658 96.108 332.329 96.0455 331.935 96.0455C331.344 96.0455 330.859 96.1856 330.48 96.4659C330.102 96.7462 329.912 97.108 329.912 97.5511C329.912 97.9261 330.041 98.2311 330.299 98.4659C330.56 98.697 330.961 98.8807 331.503 99.017L332.821 99.3409C333.552 99.5189 334.1 99.8011 334.463 100.188C334.831 100.574 335.014 101.059 335.014 101.642C335.014 102.134 334.878 102.572 334.605 102.955C334.333 103.337 333.952 103.638 333.463 103.858C332.978 104.074 332.416 104.182 331.776 104.182C330.924 104.182 330.221 103.991 329.668 103.608C329.115 103.222 328.761 102.665 328.605 101.938L329.577 101.699C329.702 102.218 329.946 102.61 330.31 102.875C330.677 103.14 331.16 103.273 331.759 103.273C332.429 103.273 332.965 103.123 333.367 102.824C333.768 102.521 333.969 102.142 333.969 101.688C333.969 101.335 333.852 101.04 333.617 100.801C333.382 100.559 333.026 100.381 332.549 100.267L331.122 99.9261C330.365 99.7443 329.804 99.4564 329.441 99.0625C329.077 98.6686 328.895 98.1799 328.895 97.5966C328.895 97.1155 329.026 96.6932 329.287 96.3295C329.549 95.9621 329.908 95.6742 330.367 95.4659C330.825 95.2576 331.348 95.1534 331.935 95.1534C332.734 95.1534 333.372 95.3352 333.85 95.6989C334.331 96.0587 334.677 96.5549 334.889 97.1875ZM344.117 104.182C343.303 104.182 342.598 103.992 342.004 103.614C341.409 103.231 340.949 102.703 340.623 102.028C340.301 101.35 340.14 100.57 340.14 99.6875C340.14 98.8087 340.301 98.0284 340.623 97.3466C340.949 96.661 341.398 96.125 341.97 95.7386C342.545 95.3485 343.21 95.1534 343.964 95.1534C344.437 95.1534 344.894 95.2405 345.333 95.4148C345.773 95.5852 346.167 95.8485 346.515 96.2045C346.867 96.5568 347.146 97.0019 347.35 97.5398C347.555 98.0739 347.657 98.7064 347.657 99.4375V99.9375H340.839V99.0455H346.623C346.623 98.4848 346.509 97.9811 346.282 97.5341C346.059 97.0833 345.746 96.7273 345.345 96.4659C344.947 96.2045 344.487 96.0739 343.964 96.0739C343.411 96.0739 342.924 96.2216 342.504 96.517C342.083 96.8125 341.754 97.2027 341.515 97.6875C341.28 98.1723 341.161 98.7027 341.157 99.2784V99.8125C341.157 100.506 341.276 101.112 341.515 101.631C341.758 102.146 342.1 102.545 342.544 102.83C342.987 103.114 343.511 103.256 344.117 103.256C344.53 103.256 344.892 103.191 345.203 103.062C345.517 102.934 345.78 102.761 345.992 102.545C346.208 102.326 346.371 102.085 346.481 101.824L347.441 102.136C347.309 102.504 347.091 102.843 346.788 103.153C346.489 103.464 346.114 103.714 345.663 103.903C345.216 104.089 344.701 104.182 344.117 104.182ZM358.791 100.665V95.2727H359.803V104H358.791V102.551H358.712C358.507 102.998 358.183 103.371 357.74 103.67C357.297 103.966 356.755 104.114 356.115 104.114C355.558 104.114 355.064 103.992 354.632 103.75C354.2 103.504 353.861 103.144 353.615 102.67C353.369 102.197 353.246 101.616 353.246 100.926V95.2727H354.257V100.864C354.257 101.545 354.458 102.095 354.859 102.511C355.261 102.924 355.776 103.131 356.405 103.131C356.799 103.131 357.178 103.036 357.541 102.847C357.905 102.657 358.204 102.381 358.439 102.017C358.674 101.65 358.791 101.199 358.791 100.665ZM374.712 98.5455V104H373.7V95.2727H374.683V96.642H374.774C374.979 96.1951 375.297 95.8371 375.729 95.5682C376.164 95.2955 376.702 95.1591 377.342 95.1591C377.929 95.1591 378.445 95.2822 378.888 95.5284C379.335 95.7708 379.681 96.1288 379.927 96.6023C380.177 97.0758 380.302 97.6572 380.302 98.3466V104H379.291V98.4091C379.291 97.6932 379.09 97.1269 378.689 96.7102C378.291 96.2936 377.757 96.0852 377.087 96.0852C376.628 96.0852 376.221 96.1837 375.865 96.3807C375.509 96.5777 375.227 96.8617 375.018 97.233C374.814 97.6004 374.712 98.0379 374.712 98.5455ZM389.854 104.182C389.04 104.182 388.335 103.992 387.741 103.614C387.146 103.231 386.686 102.703 386.36 102.028C386.038 101.35 385.877 100.57 385.877 99.6875C385.877 98.8087 386.038 98.0284 386.36 97.3466C386.686 96.661 387.135 96.125 387.707 95.7386C388.282 95.3485 388.947 95.1534 389.701 95.1534C390.174 95.1534 390.631 95.2405 391.07 95.4148C391.51 95.5852 391.904 95.8485 392.252 96.2045C392.604 96.5568 392.883 97.0019 393.087 97.5398C393.292 98.0739 393.394 98.7064 393.394 99.4375V99.9375H386.576V99.0455H392.36C392.36 98.4848 392.246 97.9811 392.019 97.5341C391.796 97.0833 391.483 96.7273 391.082 96.4659C390.684 96.2045 390.224 96.0739 389.701 96.0739C389.148 96.0739 388.661 96.2216 388.241 96.517C387.82 96.8125 387.491 97.2027 387.252 97.6875C387.017 98.1723 386.898 98.7027 386.894 99.2784V99.8125C386.894 100.506 387.013 101.112 387.252 101.631C387.494 102.146 387.837 102.545 388.28 102.83C388.724 103.114 389.248 103.256 389.854 103.256C390.267 103.256 390.629 103.191 390.939 103.062C391.254 102.934 391.517 102.761 391.729 102.545C391.945 102.326 392.108 102.085 392.218 101.824L393.178 102.136C393.046 102.504 392.828 102.843 392.525 103.153C392.225 103.464 391.85 103.714 391.4 103.903C390.953 104.089 390.438 104.182 389.854 104.182ZM402.312 107.455C401.718 107.455 401.197 107.377 400.75 107.222C400.303 107.07 399.926 106.862 399.619 106.597C399.312 106.331 399.074 106.034 398.903 105.705L399.733 105.159C399.858 105.379 400.024 105.595 400.233 105.807C400.445 106.019 400.719 106.195 401.057 106.335C401.397 106.475 401.816 106.545 402.312 106.545C403.085 106.545 403.708 106.352 404.182 105.966C404.659 105.58 404.897 104.979 404.897 104.165V102.199H404.807C404.689 102.464 404.521 102.729 404.301 102.994C404.081 103.256 403.793 103.473 403.437 103.648C403.085 103.822 402.647 103.909 402.125 103.909C401.428 103.909 400.808 103.737 400.267 103.392C399.729 103.047 399.305 102.555 398.994 101.915C398.687 101.271 398.534 100.504 398.534 99.6136C398.534 98.7311 398.683 97.9545 398.983 97.2841C399.286 96.6136 399.708 96.0909 400.25 95.7159C400.791 95.3409 401.422 95.1534 402.142 95.1534C402.676 95.1534 403.119 95.2481 403.471 95.4375C403.824 95.6231 404.106 95.8542 404.318 96.1307C404.534 96.4072 404.702 96.6761 404.824 96.9375H404.926V95.2727H405.915V104.227C405.915 104.966 405.757 105.574 405.443 106.051C405.129 106.528 404.701 106.881 404.159 107.108C403.617 107.339 403.002 107.455 402.312 107.455ZM402.244 102.983C402.805 102.983 403.284 102.848 403.682 102.58C404.079 102.307 404.384 101.917 404.596 101.409C404.808 100.902 404.915 100.297 404.915 99.5966C404.915 98.9148 404.81 98.3106 404.602 97.7841C404.394 97.2538 404.091 96.8371 403.693 96.5341C403.299 96.2273 402.816 96.0739 402.244 96.0739C401.661 96.0739 401.168 96.2311 400.767 96.5455C400.365 96.8598 400.062 97.2841 399.858 97.8182C399.653 98.3485 399.551 98.9413 399.551 99.5966C399.551 100.263 399.655 100.852 399.863 101.364C400.072 101.871 400.377 102.269 400.778 102.557C401.18 102.841 401.668 102.983 402.244 102.983ZM415.344 104.182C414.59 104.182 413.924 103.991 413.344 103.608C412.768 103.225 412.318 102.697 411.992 102.023C411.666 101.345 411.503 100.562 411.503 99.6761C411.503 98.7822 411.666 97.9962 411.992 97.3182C412.318 96.6364 412.768 96.1061 413.344 95.7273C413.924 95.3447 414.59 95.1534 415.344 95.1534C416.098 95.1534 416.763 95.3447 417.338 95.7273C417.914 96.1098 418.365 96.6402 418.691 97.3182C419.02 97.9962 419.185 98.7822 419.185 99.6761C419.185 100.562 419.022 101.345 418.696 102.023C418.371 102.697 417.918 103.225 417.338 103.608C416.763 103.991 416.098 104.182 415.344 104.182ZM415.344 103.256C415.95 103.256 416.463 103.093 416.884 102.767C417.304 102.441 417.623 102.008 417.838 101.466C418.058 100.924 418.168 100.328 418.168 99.6761C418.168 99.0246 418.058 98.4261 417.838 97.8807C417.623 97.3352 417.304 96.8977 416.884 96.5682C416.463 96.2386 415.95 96.0739 415.344 96.0739C414.742 96.0739 414.229 96.2386 413.804 96.5682C413.384 96.8977 413.064 97.3352 412.844 97.8807C412.628 98.4261 412.52 99.0246 412.52 99.6761C412.52 100.328 412.628 100.924 412.844 101.466C413.064 102.008 413.384 102.441 413.804 102.767C414.225 103.093 414.738 103.256 415.344 103.256ZM414.873 94.0625L416.327 91.483H417.526L415.782 94.0625H414.873ZM428.174 104.182C427.394 104.182 426.714 103.987 426.135 103.597C425.559 103.206 425.112 102.672 424.794 101.994C424.475 101.316 424.316 100.544 424.316 99.6761C424.316 98.8011 424.477 98.0227 424.799 97.3409C425.125 96.6591 425.576 96.125 426.152 95.7386C426.727 95.3485 427.396 95.1534 428.157 95.1534C428.741 95.1534 429.269 95.267 429.742 95.4943C430.216 95.7178 430.606 96.0341 430.913 96.4432C431.224 96.8485 431.419 97.322 431.498 97.8636H430.475C430.369 97.3712 430.114 96.9508 429.708 96.6023C429.307 96.25 428.796 96.0739 428.174 96.0739C427.617 96.0739 427.125 96.2254 426.697 96.5284C426.269 96.8277 425.934 97.2462 425.691 97.7841C425.453 98.3182 425.333 98.9375 425.333 99.642C425.333 100.35 425.451 100.977 425.686 101.523C425.921 102.064 426.25 102.489 426.674 102.795C427.102 103.102 427.602 103.256 428.174 103.256C428.561 103.256 428.913 103.184 429.231 103.04C429.553 102.892 429.822 102.684 430.038 102.415C430.258 102.146 430.405 101.826 430.481 101.455H431.504C431.428 101.981 431.241 102.451 430.941 102.864C430.646 103.273 430.261 103.595 429.788 103.83C429.318 104.064 428.78 104.182 428.174 104.182ZM437.043 104V95.2727H438.06V104H437.043ZM437.56 93.7727C437.352 93.7727 437.174 93.7027 437.026 93.5625C436.878 93.4186 436.804 93.2462 436.804 93.0455C436.804 92.8447 436.878 92.6742 437.026 92.5341C437.174 92.3902 437.352 92.3182 437.56 92.3182C437.768 92.3182 437.946 92.3902 438.094 92.5341C438.242 92.6742 438.316 92.8447 438.316 93.0455C438.316 93.2462 438.242 93.4186 438.094 93.5625C437.946 93.7027 437.768 93.7727 437.56 93.7727ZM447.487 104.182C446.733 104.182 446.066 103.991 445.487 103.608C444.911 103.225 444.46 102.697 444.134 102.023C443.809 101.345 443.646 100.562 443.646 99.6761C443.646 98.7822 443.809 97.9962 444.134 97.3182C444.46 96.6364 444.911 96.1061 445.487 95.7273C446.066 95.3447 446.733 95.1534 447.487 95.1534C448.24 95.1534 448.905 95.3447 449.481 95.7273C450.057 96.1098 450.507 96.6402 450.833 97.3182C451.163 97.9962 451.328 98.7822 451.328 99.6761C451.328 100.562 451.165 101.345 450.839 102.023C450.513 102.697 450.061 103.225 449.481 103.608C448.905 103.991 448.24 104.182 447.487 104.182ZM447.487 103.256C448.093 103.256 448.606 103.093 449.026 102.767C449.447 102.441 449.765 102.008 449.981 101.466C450.201 100.924 450.311 100.328 450.311 99.6761C450.311 99.0246 450.201 98.4261 449.981 97.8807C449.765 97.3352 449.447 96.8977 449.026 96.5682C448.606 96.2386 448.093 96.0739 447.487 96.0739C446.884 96.0739 446.371 96.2386 445.947 96.5682C445.526 96.8977 445.206 97.3352 444.987 97.8807C444.771 98.4261 444.663 99.0246 444.663 99.6761C444.663 100.328 444.771 100.924 444.987 101.466C445.206 102.008 445.526 102.441 445.947 102.767C446.367 103.093 446.881 103.256 447.487 103.256ZM457.715 104.085C457.491 104.085 457.298 104.006 457.135 103.847C456.976 103.684 456.896 103.491 456.896 103.267C456.896 103.04 456.976 102.847 457.135 102.688C457.298 102.528 457.491 102.449 457.715 102.449C457.942 102.449 458.135 102.528 458.294 102.688C458.453 102.847 458.533 103.04 458.533 103.267C458.533 103.415 458.495 103.551 458.419 103.676C458.347 103.801 458.249 103.902 458.124 103.977C458.002 104.049 457.866 104.085 457.715 104.085Z" fill="#F4F4F5"/>
<g filter="url(#filter0_d_20_13)">
<path d="M148.978 6.12022C149.728 5.40296 150.745 5 151.805 5H178.4C181.954 5 183.741 9.10439 181.237 11.5171L121.966 68.6311C121.215 69.3543 120.194 69.761 119.129 69.761H92.1084C88.5473 69.761 86.7637 65.643 89.2815 63.2342L148.978 6.12022Z" fill="#00BC7D"/>
<path d="M151.805 70C148.244 70 146.46 65.8815 148.979 63.4728L181.176 32.6761C183.694 30.2674 188 31.9733 188 35.3797V66.1765C188 68.2881 186.21 70 184.003 70H151.805Z" fill="#00BC7D"/>
<path d="M88.8754 6.12022C89.6251 5.40296 90.642 5 91.7024 5H118.297C121.851 5 123.638 9.10439 121.134 11.5171L61.8627 68.6311C61.1123 69.3543 60.091 69.761 59.0257 69.761H32.0055C28.4444 69.761 26.6607 65.643 29.1785 63.2342L88.8754 6.12022Z" fill="#00BC7D"/>
</g>
<defs>
<filter id="filter0_d_20_13" x="23" y="0" width="185" height="90" filterUnits="userSpaceOnUse" color-interpolation-filters="sRGB">
<feFlood flood-opacity="0" result="BackgroundImageFix"/>
<feColorMatrix in="SourceAlpha" type="matrix" values="0 0 0 0 0 0 0 0 0 0 0 0 0 0 0 0 0 0 127 0" result="hardAlpha"/>
<feOffset dx="7.5" dy="7.5"/>
<feGaussianBlur stdDeviation="6.25"/>
<feComposite in2="hardAlpha" operator="out"/>
<feColorMatrix type="matrix" values="0 0 0 0 0 0 0 0 0 0 0 0 0 0 0 0 0 0 0.25 0"/>
<feBlend mode="normal" in2="BackgroundImageFix" result="effect1_dropShadow_20_13"/>
<feBlend mode="normal" in="SourceGraphic" in2="effect1_dropShadow_20_13" result="shape"/>
</filter>
</defs>
</svg>
