<svg width="16" height="16" viewBox="0 0 16 16" fill="none" xmlns="http://www.w3.org/2000/svg">
<rect width="16" height="16" rx="4" fill="#09090B"/>
<path d="M10.0489 6.45604C10.0864 6.42017 10.1372 6.40002 10.1903 6.40002H11.52C11.6977 6.40002 11.787 6.60524 11.6618 6.72588L8.69829 9.58158C8.66076 9.61774 8.6097 9.63808 8.55643 9.63808H7.20542C7.02737 9.63808 6.93818 9.43218 7.06407 9.31173L10.0489 6.45604Z" fill="#00BC7D"/>
<path d="M10.1903 9.65002C10.0122 9.65002 9.92301 9.4441 10.0489 9.32367L11.6588 7.78383C11.7847 7.66339 12 7.74869 12 7.91901V9.45885C12 9.56443 11.9105 9.65002 11.8001 9.65002H10.1903Z" fill="#00BC7D"/>
<path d="M7.04377 6.45604C7.08126 6.42017 7.1321 6.40002 7.18512 6.40002H8.51483C8.69254 6.40002 8.78188 6.60524 8.65669 6.72588L5.69314 9.58158C5.65561 9.61774 5.60455 9.63808 5.55128 9.63808H4.20027C4.02222 9.63808 3.93304 9.43218 4.05892 9.31173L7.04377 6.45604Z" fill="#00BC7D"/>
</svg>
